<?xml version="1.0" encoding="utf-8"?>
<!-- Generator: Adobe Illustrator 26.2.0, SVG Export Plug-In . SVG Version: 6.00 Build 0)  -->
<svg version="1.1" id="Layer_1" xmlns="http://www.w3.org/2000/svg" xmlns:xlink="http://www.w3.org/1999/xlink" x="0px" y="0px"
	 viewBox="0 0 142 54" style="enable-background:new 0 0 142 54;" xml:space="preserve">
<style type="text/css">
	.st0{fill:#74BB44;}
	.st1{fill:#98268B;}
	.st2{fill:#2AA7DF;}
	.st3{fill:#ED7425;}
	.st4{fill:#E40D88;}
	.st5{fill:#FFFFFF;}
</style>
<g>
	<g>
		<g>
			<path class="st0" d="M23.5,25.2l4.7-3.7l0.6-4.9L17,1.5L6.8,9.4l11.8,15.2L23.5,25.2z M23,19.8c0.7-0.5,1.7-0.4,2.2,0.3
				c0.5,0.7,0.4,1.7-0.3,2.2c-0.7,0.5-1.7,0.4-2.2-0.3C22.2,21.3,22.4,20.3,23,19.8z"/>
			<path class="st1" d="M25.1,32.9l-2-5.6l-4.4-2.1L0.6,31.8L5,43.9l18.1-6.5L25.1,32.9z M19.9,31.7c-0.3-0.8,0.1-1.7,0.9-2
				c0.8-0.3,1.7,0.1,2,0.9c0.3,0.8-0.1,1.7-0.9,2C21.1,32.9,20.2,32.5,19.9,31.7z"/>
			<path class="st2" d="M30.4,21.7l4.9,3.3l4.8-0.9L50.9,8.2L40.2,1L29.4,16.9L30.4,21.7z M35.4,19.6c0.7,0.5,0.9,1.5,0.4,2.2
				c-0.5,0.7-1.5,0.9-2.2,0.4c-0.7-0.5-0.9-1.5-0.4-2.2C33.7,19.4,34.6,19.2,35.4,19.6z"/>
		</g>
		<g>
			<path class="st3" d="M8.5,25.5c0.7-0.5,1.1-1.3,1.2-2.2c0.2-1.8-1-3.4-2.8-3.6c-0.9-0.1-1.7,0.1-2.4,0.7
				c-0.7,0.5-1.1,1.3-1.2,2.2c-0.1,0.9,0.1,1.7,0.7,2.4c0.5,0.7,1.3,1.1,2.2,1.2C6.9,26.3,7.8,26.1,8.5,25.5z"/>
			<path class="st3" d="M28.4,8.1c0.5-0.4,0.8-0.9,0.9-1.5c0.2-1.3-0.7-2.4-2-2.6c-0.6-0.1-1.2,0.1-1.7,0.5
				c-0.5,0.4-0.8,0.9-0.9,1.5c-0.1,0.6,0.1,1.2,0.5,1.7c0.4,0.5,0.9,0.8,1.5,0.9C27.3,8.6,27.9,8.4,28.4,8.1z"/>
			<path class="st1" d="M53.3,25.6c0.5-0.4,0.8-1,0.9-1.6c0.2-1.3-0.8-2.5-2.1-2.7c-0.6-0.1-1.3,0.1-1.8,0.5c-0.5,0.4-0.8,1-0.9,1.6
				c-0.1,0.6,0.1,1.3,0.5,1.8c0.4,0.5,1,0.8,1.6,0.9C52.2,26.2,52.8,26,53.3,25.6z"/>
			<path class="st3" d="M33,3.4c0.3-0.2,0.5-0.6,0.6-1c0.1-0.8-0.5-1.5-1.3-1.6c-0.4,0-0.8,0.1-1.1,0.3c-0.3,0.2-0.5,0.6-0.6,1
				c0,0.4,0.1,0.8,0.3,1.1c0.2,0.3,0.6,0.5,1,0.6C32.3,3.7,32.7,3.6,33,3.4z"/>
			<path class="st4" d="M17.9,46.9c0.5-0.4,0.9-1,1-1.7c0.2-1.4-0.8-2.6-2.2-2.8c-0.7-0.1-1.3,0.1-1.9,0.5c-0.5,0.4-0.9,1-1,1.7
				c-0.1,0.7,0.1,1.3,0.5,1.9c0.4,0.5,1,0.9,1.7,1C16.8,47.5,17.4,47.3,17.9,46.9z"/>
			<path class="st1" d="M49.1,19.7c0.3-0.2,0.5-0.6,0.5-0.9c0.1-0.8-0.4-1.5-1.2-1.6c-0.4,0-0.7,0.1-1,0.3s-0.5,0.6-0.5,0.9
				c0,0.4,0.1,0.7,0.3,1c0.2,0.3,0.6,0.5,0.9,0.5C48.5,20.1,48.8,20,49.1,19.7z"/>
		</g>
	</g>
	<g>
		<g>
			<path class="st5" d="M28.3,30.5c0.2-1.5,0.3-2.4,0.3-3c0.4-0.1,1.5-0.2,2.4-0.2c0.4,0,0.5,0.2,0.3,1.3L30,39.9
				c0.4,0.1,1,0.1,2.6,0.1c1.3,0,2.3,0,2.8-0.1v0c-0.2,0.9-0.8,1.4-1.2,1.7c-0.3,0.1-1,0.1-3,0.1c-2.3,0-3.5-0.1-4-0.2l-0.3-0.5
				L28.3,30.5z"/>
			<path class="st5" d="M46.2,35.4c0,3.8-2.4,6.5-5.9,6.5c-2.5,0-3.8-1.2-3.8-3.9c0-3.6,2.1-6.7,5.8-6.7
				C45,31.3,46.2,33.2,46.2,35.4z M39.4,38.3c0,1,0.3,1.9,1.2,1.9c1.5,0,2.6-2.5,2.6-5.4c0-0.8-0.3-1.8-1.2-1.8
				C40.4,33,39.4,35.6,39.4,38.3z"/>
			<path class="st5" d="M45.6,45.4c0.8-0.7,3.1-2.8,3.6-3.6c-0.2-0.3-0.4-0.9-0.6-1.7c-0.4-2-1-6.4-1.2-8.3c0.6-0.2,2-0.5,2.6-0.5
				c0.3,0,0.3,0.2,0.4,0.4c0.1,2,0.4,4.8,0.6,6.1c0.1,0.6,0.2,1,0.3,1.3c1.5-2.3,2.4-5.7,2.6-7.4c0.3-0.1,1.4-0.3,2.1-0.3
				c0.2,0,0.2,0.3,0.2,0.8c0,1.4-0.6,4.6-3.4,8.7c-1.9,2.8-4.4,5.4-5.1,5.8C46.7,46.6,45.8,46,45.6,45.4z"/>
			<path class="st5" d="M58.8,33.2c1.5-1.6,3.5-1.9,4.8-1.9c1,0,2.5,0.3,3.4,0.5c-0.2,1-0.8,4.8-1,6.9c-0.1,0.7-0.2,2.2-0.1,2.8
				c-0.8,0.3-2.1,0.4-2.5,0.4c-0.2,0-0.3-1-0.2-2c0-0.3,0.1-0.7,0.1-0.9c-0.8,1.5-2.6,2.8-4.5,2.8c-1.3,0-2.1-1.1-2.1-3.3
				C56.7,37.4,57.1,35,58.8,33.2z M64,33.9c0-0.3,0.1-0.4,0.1-0.5c-0.2-0.1-0.6-0.2-0.9-0.2c-0.9,0-1.8,0.3-2.6,1.3
				c-0.8,1.1-1.2,2.5-1.2,3.7c0,0.9,0.3,1.5,0.8,1.5C61.4,39.7,63.5,37.6,64,33.9z"/>
			<path class="st5" d="M71.1,40.7c-0.1,0.4-0.2,0.6-0.4,0.7c-0.6,0.2-1.7,0.4-2.6,0.4c0.3-2.2,1.5-10,1.7-12c0.3-2.5,0.4-3,0.4-3.3
				c0.5-0.1,2-0.3,2.5-0.3c0.3,0,0.4,0.1,0.3,0.7C72.7,29.8,71.5,38.1,71.1,40.7z"/>
			<path class="st5" d="M79.1,35.4c-0.1,0.7-0.5,1.9-1.2,2.1c-0.9,0.2-3.6,0.2-4.3,0.1l0-0.1c0.1-1.1,0.7-2,1-2
				c1.4,0,3.6-0.1,4.5-0.2L79.1,35.4z"/>
			<path class="st5" d="M97.2,35.4c-0.1,0.7-0.5,1.9-1.2,2.1c-0.9,0.2-3.6,0.2-4.3,0.1l0-0.1c0.1-1.1,0.7-2,1-2
				c1.4,0,3.6-0.1,4.5-0.2L97.2,35.4z"/>
			<path class="st5" d="M83.9,34.3c1.1-1.8,2.4-3,4.3-3c1.6,0,2.1,1.5,1.8,3.5c-0.1,0.9-0.4,2.4-0.6,3.9c-0.2,1.1-0.3,2.2-0.3,2.8
				c-0.5,0.3-2.3,0.4-2.6,0.4c-0.2,0-0.2-1.1,0-2.5c0.2-1,0.6-3.2,0.8-4.4c0.1-0.6,0.1-1.4-0.5-1.4c-0.9,0-2.9,1.5-3.8,6.9
				c-0.1,0.4-0.2,0.8-0.5,0.9c-0.3,0.2-1,0.4-2.5,0.4c0.3-1.4,0.7-4.4,1-6.5c0.3-1.6,0.3-2.9,0.3-3.5c0.4-0.1,2.4-0.5,2.6-0.5
				c0.3,0,0.3,0.6,0.1,2.4C83.9,33.9,83.9,34.2,83.9,34.3L83.9,34.3z"/>
			<path class="st5" d="M104.5,28.6c0.6,0.1,1.9,0.5,2.3,1.1c-0.1,0.9-0.7,1.5-1.2,1.3c-0.7-0.4-1.5-0.7-2.2-0.7
				c-1.1,0-1.8,0.6-1.8,1.5c0,0.8,0.8,1.4,2.3,2.3c1.6,1,2.7,1.9,2.7,3.5c0,2.6-2,3.7-3.7,3.9l-0.3,1.7c-0.1,0.3-0.3,0.4-0.7,0.4
				c-0.5,0.1-1,0.1-1.6,0.1l0.4-2.1c-0.9-0.1-2.2-0.5-3-1.4c0.1-1,0.6-1.7,1.3-1.3c0.8,0.4,1.9,0.9,2.8,0.9c1.4,0,1.9-0.7,1.9-1.7
				c0-0.7-0.4-1.2-2.2-2.3c-1.8-1.1-2.6-2.1-2.6-3.5c0-2.7,2.4-3.7,3.5-3.8l0.3-1.2c0.1-0.3,0.3-0.5,0.6-0.5c0.4-0.1,1-0.1,1.7-0.1
				L104.5,28.6z"/>
			<path class="st5" d="M110.1,33.2c1.5-1.6,3.5-1.9,4.8-1.9c1,0,2.5,0.3,3.4,0.5c-0.2,1-0.8,4.8-1,6.9c-0.1,0.7-0.2,2.2-0.1,2.8
				c-0.8,0.3-2.1,0.4-2.5,0.4c-0.2,0-0.3-1-0.2-2c0-0.3,0.1-0.7,0.1-0.9c-0.8,1.5-2.6,2.8-4.5,2.8c-1.3,0-2.1-1.1-2.1-3.3
				C108,37.4,108.4,35,110.1,33.2z M115.3,33.9c0-0.3,0.1-0.4,0.1-0.5c-0.2-0.1-0.6-0.2-0.9-0.2c-0.9,0-1.8,0.3-2.6,1.3
				c-0.8,1.1-1.2,2.5-1.2,3.7c0,0.9,0.3,1.5,0.8,1.5C112.7,39.7,114.8,37.6,115.3,33.9z"/>
			<path class="st5" d="M127,36.8c-1.2,2-2.7,3.5-3.6,4.3c-0.3,0.2-0.5,0.4-0.8,0.5c-0.3,0.2-1.3,0.4-1.5,0.4
				c-0.3-0.2-0.6-1.8-0.7-2.8c-0.2-1.8-0.4-6.2-0.4-7.5c0.4-0.1,2.2-0.3,2.6-0.3c0.2,0,0.3,0.1,0.3,0.5c0,2.2,0,3.3,0.1,5.6
				c0,0.4,0.1,0.8,0.2,1c1.4-1.3,3.2-4.3,3.2-6.4c0-0.1,0-0.3,0-0.5c0.5-0.1,1.6-0.3,2-0.3c0.2,0,0.3,0.6,0.3,1
				C128.6,33.8,127.7,35.6,127,36.8z"/>
			<path class="st5" d="M137.3,33.6c0,2.7-3.5,3.8-5.6,4c0,0.1,0,0.2,0,0.3c0,1.2,0.5,1.9,1.5,1.9c1.3,0,2.4-0.8,3.1-1.4
				c0.2,0.1,0.3,0.5,0.3,0.9c0,0.4-0.1,0.9-0.4,1.2c-0.7,0.8-2,1.5-3.9,1.5c-2.4,0-3.5-1.6-3.5-3.9c0-3.4,2.1-6.7,5.7-6.7
				C136.6,31.3,137.3,32.5,137.3,33.6z M131.9,35.8c1.6-0.1,3-1,3-2.1c0-0.4-0.2-0.8-0.8-0.8C133.3,33,132.2,34,131.9,35.8z"/>
		</g>
		<g>
			<path class="st5" d="M139.5,51.5v0.2h-0.5v1.4h-0.2v-1.4h-0.5v-0.2H139.5z"/>
			<path class="st5" d="M141.4,51.6v1.6h-0.2v-1.3l-0.5,1.3h-0.2l-0.5-1.3v1.3h-0.2v-1.6h0.2l0.6,1.3l0.6-1.3H141.4z"/>
		</g>
		<g>
			<g>
				<path class="st5" d="M27.3,50.9l-0.4,2.3h-0.6l1-5.5H29c0.6,0,1,0.1,1.2,0.3c0.3,0.2,0.4,0.5,0.4,0.9c0,0.1,0,0.2,0,0.4
					c-0.1,0.5-0.3,0.9-0.7,1.2c-0.4,0.3-0.9,0.4-1.5,0.4H27.3z M30,49.3c0-0.1,0-0.2,0-0.3c0-0.6-0.4-0.8-1.2-0.8h-1.1l-0.4,2.3h1.1
					C29.4,50.4,29.9,50,30,49.3z"/>
				<path class="st5" d="M35,48c0.3,0.2,0.4,0.5,0.4,0.9c0,0.1,0,0.2,0,0.4c-0.1,0.5-0.3,0.8-0.6,1.1c-0.3,0.3-0.7,0.4-1.2,0.5
					l1.2,2.3h-0.6L33,50.9h-0.9l-0.4,2.3h-0.6l1-5.5h1.7C34.3,47.7,34.7,47.8,35,48z M34.8,49c0-0.6-0.4-0.9-1.2-0.9h-1.1l-0.4,2.3
					h1.1c0.9,0,1.4-0.4,1.6-1.1C34.8,49.2,34.8,49.1,34.8,49z"/>
				<path class="st5" d="M37.4,48.1L37,50.2h2.2l-0.1,0.4h-2.2l-0.4,2.1H39l-0.1,0.5h-3l1-5.5h3l-0.1,0.4H37.4z"/>
				<path class="st5" d="M46.6,47.8l-1,5.4h-0.6l0.8-4.5l-2.7,4.5h-0.5l-1.1-4.5l-0.8,4.5h-0.6l1-5.4h0.7l1.2,4.7l2.9-4.7H46.6z"/>
				<path class="st5" d="M48.7,47.7l-1,5.5h-0.6l1-5.5H48.7z"/>
				<path class="st5" d="M50.7,47.7L50.1,51c0,0.2-0.1,0.4-0.1,0.5c0,0.4,0.1,0.7,0.3,0.9c0.2,0.2,0.5,0.3,0.9,0.3
					c0.5,0,0.8-0.1,1.1-0.4c0.3-0.3,0.5-0.7,0.6-1.3l0.6-3.3h0.6L53.6,51c-0.1,0.7-0.4,1.3-0.9,1.7c-0.4,0.4-1,0.6-1.6,0.6
					c-0.5,0-0.9-0.1-1.2-0.4c-0.3-0.3-0.4-0.7-0.4-1.2c0-0.2,0-0.4,0.1-0.6l0.6-3.3H50.7z"/>
				<path class="st5" d="M61.1,47.8l-1,5.4h-0.6l0.8-4.5l-2.7,4.5h-0.5L56,48.7l-0.8,4.5h-0.6l1-5.4h0.7l1.2,4.7l2.9-4.7H61.1z"/>
				<path class="st5" d="M64.6,52.7h2l-0.1,0.4H64l1-5.5h0.6L64.6,52.7z"/>
				<path class="st5" d="M72.3,47.9c0.3,0.2,0.6,0.5,0.8,0.8s0.3,0.7,0.3,1.2c0,0.2,0,0.4-0.1,0.6c-0.1,0.5-0.3,1-0.6,1.4
					c-0.3,0.4-0.7,0.7-1.1,1c-0.4,0.2-0.9,0.3-1.4,0.3c-0.5,0-0.9-0.1-1.2-0.3c-0.4-0.2-0.6-0.5-0.8-0.8c-0.2-0.3-0.3-0.7-0.3-1.2
					c0-0.2,0-0.4,0.1-0.6c0.1-0.5,0.3-1,0.6-1.4c0.3-0.4,0.7-0.7,1.1-1c0.4-0.2,0.9-0.3,1.5-0.3C71.6,47.6,72,47.7,72.3,47.9z
					 M69.9,48.4c-0.4,0.2-0.7,0.4-0.9,0.8c-0.2,0.3-0.4,0.7-0.5,1.2c0,0.2,0,0.4,0,0.5c0,0.6,0.2,1,0.5,1.3c0.3,0.3,0.8,0.5,1.3,0.5
					c0.4,0,0.8-0.1,1.1-0.3c0.4-0.2,0.7-0.4,0.9-0.8c0.2-0.3,0.4-0.7,0.5-1.2c0-0.2,0-0.4,0-0.5c0-0.6-0.2-1-0.5-1.3
					c-0.3-0.3-0.8-0.5-1.3-0.5C70.6,48.1,70.3,48.2,69.9,48.4z"/>
				<path class="st5" d="M78.9,47.7L76.5,51l-0.4,2.1h-0.6L76,51l-1.2-3.3h0.6l0.9,2.8l1.9-2.8H78.9z"/>
				<path class="st5" d="M82.5,51.8H80l-0.7,1.3h-0.6l3-5.4h0.6l1.1,5.4h-0.6L82.5,51.8z M82.4,51.4l-0.6-3l-1.7,3H82.4z"/>
				<path class="st5" d="M85.1,52.7h2L87,53.2h-2.6l1-5.5H86L85.1,52.7z"/>
				<path class="st5" d="M92.4,47.7l-0.1,0.4h-1.6l-0.9,5h-0.6l0.9-5h-1.6l0.1-0.4H92.4z"/>
				<path class="st5" d="M97.2,47.7L94.8,51l-0.4,2.1h-0.6l0.4-2.1L93,47.7h0.6l0.9,2.8l1.9-2.8H97.2z"/>
				<path class="st5" d="M103.5,48c0.3,0.2,0.4,0.5,0.4,0.9c0,0.1,0,0.2,0,0.4c-0.1,0.5-0.3,0.8-0.6,1.1c-0.3,0.3-0.7,0.4-1.2,0.5
					l1.2,2.3h-0.6l-1.1-2.3h-0.9l-0.4,2.3h-0.6l1-5.5h1.7C102.9,47.7,103.3,47.8,103.5,48z M103.4,49c0-0.6-0.4-0.9-1.2-0.9h-1.1
					l-0.4,2.3h1.1c0.9,0,1.4-0.4,1.6-1.1C103.4,49.2,103.4,49.1,103.4,49z"/>
				<path class="st5" d="M105.9,48.1l-0.4,2.1h2.2l-0.1,0.4h-2.2l-0.4,2.1h2.4l-0.1,0.5h-3l1-5.5h3l-0.1,0.4H105.9z"/>
				<path class="st5" d="M116.4,47.7l-2.4,5.5h-0.7l-0.6-4.7l-2.3,4.7h-0.7l-0.5-5.5h0.6l0.3,4.8l2.3-4.8h0.6l0.6,4.8l2-4.8H116.4z"
					/>
				<path class="st5" d="M120.1,51.8h-2.5l-0.7,1.3h-0.6l3-5.4h0.6l1.1,5.4h-0.6L120.1,51.8z M120,51.4l-0.6-3l-1.7,3H120z"/>
				<path class="st5" d="M125.9,48c0.3,0.2,0.4,0.5,0.4,0.9c0,0.1,0,0.2,0,0.4c-0.1,0.5-0.3,0.8-0.6,1.1c-0.3,0.3-0.7,0.4-1.2,0.5
					l1.2,2.3H125l-1.1-2.3H123l-0.4,2.3H122l1-5.5h1.7C125.2,47.7,125.6,47.8,125.9,48z M125.7,49c0-0.6-0.4-0.9-1.2-0.9h-1.1
					l-0.4,2.3h1.1c0.9,0,1.4-0.4,1.6-1.1C125.7,49.2,125.7,49.1,125.7,49z"/>
				<path class="st5" d="M131.3,51.9c-0.3,0.4-0.7,0.7-1.2,1c-0.5,0.2-1,0.3-1.7,0.3h-1.7l1-5.5h1.7c0.8,0,1.4,0.2,1.9,0.6
					c0.4,0.4,0.6,0.9,0.6,1.6c0,0.2,0,0.4-0.1,0.6C131.8,51,131.6,51.5,131.3,51.9z M130.5,52.1c0.5-0.4,0.8-1,0.9-1.7
					c0-0.2,0-0.4,0-0.5c0-0.6-0.2-1-0.5-1.3c-0.3-0.3-0.9-0.4-1.5-0.4h-1.1l-0.8,4.5h1.1C129.3,52.7,130,52.5,130.5,52.1z"/>
				<path class="st5" d="M136.1,52.5c-0.2,0.2-0.4,0.4-0.6,0.5c-0.3,0.1-0.6,0.2-0.9,0.2c-0.4,0-0.7-0.1-1-0.2
					c-0.3-0.1-0.5-0.3-0.6-0.5c-0.1-0.2-0.2-0.5-0.2-0.7h0.6c0,0.2,0,0.3,0.1,0.5c0.1,0.2,0.2,0.3,0.4,0.4c0.2,0.1,0.4,0.2,0.7,0.2
					c0.3,0,0.6-0.1,0.8-0.3c0.2-0.2,0.3-0.4,0.4-0.7c0-0.1,0-0.2,0-0.2c0-0.2-0.1-0.4-0.2-0.5c-0.1-0.1-0.2-0.2-0.4-0.3
					c-0.2-0.1-0.4-0.2-0.7-0.3c-0.3-0.1-0.5-0.2-0.7-0.3c-0.2-0.1-0.3-0.2-0.5-0.4c-0.1-0.2-0.2-0.4-0.2-0.6c0-0.1,0-0.2,0-0.4
					c0.1-0.4,0.3-0.6,0.6-0.9c0.3-0.2,0.7-0.3,1.2-0.3c0.4,0,0.7,0.1,0.9,0.2c0.3,0.1,0.4,0.3,0.6,0.5s0.2,0.4,0.2,0.7h-0.6
					c0-0.2-0.1-0.4-0.3-0.6c-0.2-0.2-0.5-0.3-0.8-0.3c-0.4,0-0.6,0.1-0.9,0.3c-0.2,0.2-0.3,0.4-0.3,0.8c0,0.2,0.1,0.4,0.2,0.5
					c0.1,0.1,0.2,0.2,0.4,0.3c0.2,0.1,0.4,0.2,0.6,0.3c0.3,0.1,0.5,0.2,0.7,0.3c0.2,0.1,0.3,0.2,0.5,0.4c0.1,0.2,0.2,0.4,0.2,0.7
					c0,0.1,0,0.2,0,0.4C136.4,52.1,136.3,52.3,136.1,52.5z"/>
			</g>
		</g>
	</g>
</g>
</svg>
