<svg id="Layer_1" data-name="Layer 1" xmlns="http://www.w3.org/2000/svg" viewBox="0 0 140.73 52.43"><path d="M23.46,25.16l4.7-3.65.6-4.86L17,1.5,6.81,9.4l11.8,15.16ZM23,19.78A1.56,1.56,0,1,1,22.77,22,1.56,1.56,0,0,1,23,19.78Z" transform="translate(-0.63 -0.78)" style="fill:#74bb44"/><path d="M25.14,32.94l-2-5.59-4.43-2.08L.63,31.81,5,43.91l18.06-6.54ZM19.9,31.68a1.55,1.55,0,0,1,.93-2,1.56,1.56,0,1,1,1.06,2.93A1.54,1.54,0,0,1,19.9,31.68Z" transform="translate(-0.63 -0.78)" style="fill:#98268b"/><path d="M30.36,21.71l4.93,3.34,4.8-.93L50.86,8.22,40.2,1,29.44,16.91Zm5-2.06a1.56,1.56,0,1,1-2.17.41A1.56,1.56,0,0,1,35.35,19.65Z" transform="translate(-0.63 -0.78)" style="fill:#2aa7df"/><path d="M8.47,25.52a3.22,3.22,0,0,0,1.24-2.17,3.26,3.26,0,0,0-5.24-3,3.3,3.3,0,0,0-1.23,2.17A3.24,3.24,0,0,0,3.91,25a3.25,3.25,0,0,0,4.56.57Z" transform="translate(-0.63 -0.78)" style="fill:#ed7425"/><path d="M28.38,8.07A2.3,2.3,0,0,0,27.25,4a2.26,2.26,0,0,0-1.7.47A2.23,2.23,0,0,0,24.68,6a2.27,2.27,0,0,0,.47,1.7,2.3,2.3,0,0,0,1.53.87A2.27,2.27,0,0,0,28.38,8.07Z" transform="translate(-0.63 -0.78)" style="fill:#ed7425"/><path d="M53.29,25.59a2.41,2.41,0,1,0-1.78.49A2.43,2.43,0,0,0,53.29,25.59Z" transform="translate(-0.63 -0.78)" style="fill:#98268b"/><path d="M33,3.4a1.44,1.44,0,0,0,.55-1A1.46,1.46,0,0,0,32.29.8a1.44,1.44,0,0,0-1.08.29A1.47,1.47,0,0,0,31,3.15a1.48,1.48,0,0,0,1,.55A1.45,1.45,0,0,0,33,3.4Z" transform="translate(-0.63 -0.78)" style="fill:#ed7425"/><path d="M17.94,46.89a2.51,2.51,0,0,0-1.23-4.48,2.44,2.44,0,0,0-1.86.51,2.52,2.52,0,0,0-.44,3.53,2.54,2.54,0,0,0,1.68,1A2.48,2.48,0,0,0,17.94,46.89Z" transform="translate(-0.63 -0.78)" style="fill:#e40d88"/><path d="M49.12,19.72a1.43,1.43,0,0,0,.53-.93,1.4,1.4,0,0,0-2.25-1.27,1.4,1.4,0,1,0,1.72,2.2Z" transform="translate(-0.63 -0.78)" style="fill:#98268b"/><path d="M28.32,30.52c.18-1.51.29-2.44.34-3a17,17,0,0,1,2.44-.19c.36,0,.48.23.34,1.35L30,39.9a12.85,12.85,0,0,0,2.62.12C34,40,35,40,35.4,39.93v0a2.83,2.83,0,0,1-1.23,1.71,14.85,14.85,0,0,1-3,.14,22.92,22.92,0,0,1-4-.23l-.29-.46Z" transform="translate(-0.63 -0.78)" style="fill:#231f20"/><path d="M46.16,35.42c0,3.78-2.37,6.53-5.92,6.53-2.46,0-3.83-1.2-3.83-3.94,0-3.6,2.1-6.67,5.83-6.67C45,31.34,46.16,33.16,46.16,35.42Zm-6.74,2.89c0,1,.32,1.91,1.18,1.91,1.48,0,2.55-2.48,2.55-5.37,0-.8-.25-1.8-1.18-1.8C40.44,33.05,39.42,35.64,39.42,38.31Z" transform="translate(-0.63 -0.78)" style="fill:#231f20"/><path d="M45.62,45.37a31.37,31.37,0,0,0,3.62-3.57,6.62,6.62,0,0,1-.59-1.67c-.43-2-1-6.38-1.19-8.27a9.84,9.84,0,0,1,2.6-.52c.27,0,.34.16.37.41.13,2,.38,4.76.59,6.08a4.23,4.23,0,0,0,.32,1.25,18.28,18.28,0,0,0,2.55-7.42A7.49,7.49,0,0,1,56,31.34c.18,0,.23.34.23.75,0,1.39-.64,4.58-3.37,8.73a24,24,0,0,1-5.15,5.76A2.14,2.14,0,0,1,45.62,45.37Z" transform="translate(-0.63 -0.78)" style="fill:#231f20"/><path d="M58.81,33.23a6.41,6.41,0,0,1,4.78-1.89,21.2,21.2,0,0,1,3.42.52c-.23,1-.78,4.81-1,6.93a16.66,16.66,0,0,0-.14,2.75,8.2,8.2,0,0,1-2.46.44c-.2,0-.25-1-.18-2,0-.25.07-.73.07-.87A5.57,5.57,0,0,1,58.83,42c-1.34,0-2.14-1.11-2.14-3.32A8,8,0,0,1,58.81,33.23Zm5.24.66a5,5,0,0,1,.11-.52,2.51,2.51,0,0,0-.93-.19,3.05,3.05,0,0,0-2.55,1.35,6.52,6.52,0,0,0-1.19,3.71c0,.89.25,1.46.75,1.46C61.43,39.7,63.46,37.6,64.05,33.89Z" transform="translate(-0.63 -0.78)" style="fill:#231f20"/><path d="M71.1,40.72a.91.91,0,0,1-.43.71,8.09,8.09,0,0,1-2.6.43c.32-2.18,1.48-10,1.71-12,.32-2.53.39-3,.39-3.35a16.2,16.2,0,0,1,2.52-.32c.3,0,.42.14.32.71C72.69,29.77,71.51,38.06,71.1,40.72Z" transform="translate(-0.63 -0.78)" style="fill:#231f20"/><path d="M79.07,35.41c-.12.72-.55,1.91-1.21,2.06a21.06,21.06,0,0,1-4.3.14l0-.1c.09-1.08.71-2,1-2,1.41,0,3.64-.1,4.51-.23Z" transform="translate(-0.63 -0.78)" style="fill:#231f20"/><path d="M97.18,35.41c-.11.72-.54,1.91-1.2,2.06a21.18,21.18,0,0,1-4.31.14l0-.1c.09-1.08.7-2,1-2,1.41,0,3.64-.1,4.51-.23Z" transform="translate(-0.63 -0.78)" style="fill:#231f20"/><path d="M83.92,34.32c1.1-1.77,2.39-3,4.29-3,1.61,0,2.11,1.5,1.84,3.48-.11.87-.41,2.42-.61,3.92a15.83,15.83,0,0,0-.26,2.8,9.29,9.29,0,0,1-2.64.41c-.16,0-.23-1.07,0-2.48.18-1,.59-3.23.78-4.42.09-.57.13-1.39-.55-1.39-.91,0-2.89,1.51-3.85,6.88a1.3,1.3,0,0,1-.52.94,5.8,5.8,0,0,1-2.46.38c.25-1.39.68-4.42,1-6.51a16.16,16.16,0,0,0,.27-3.46,22.63,22.63,0,0,1,2.6-.55c.25,0,.34.64.12,2.39,0,.18-.07.46-.1.59Z" transform="translate(-0.63 -0.78)" style="fill:#231f20"/><path d="M104.52,28.58a4.34,4.34,0,0,1,2.3,1.1c-.07.93-.69,1.48-1.23,1.34a5,5,0,0,0-2.24-.71c-1.11,0-1.82.57-1.82,1.51s.75,1.36,2.26,2.3,2.66,1.91,2.66,3.53a3.93,3.93,0,0,1-3.73,3.92l-.35,1.71c-.06.29-.34.38-.7.43a9.26,9.26,0,0,1-1.64.09l.41-2.12a5.11,5.11,0,0,1-3-1.39c.07-1,.6-1.73,1.28-1.34a6.41,6.41,0,0,0,2.85.93c1.36,0,1.93-.73,1.93-1.66,0-.68-.43-1.23-2.16-2.3s-2.58-2.14-2.58-3.51a3.84,3.84,0,0,1,3.51-3.78l.25-1.23c.07-.32.25-.46.64-.55a8.7,8.7,0,0,1,1.73-.14Z" transform="translate(-0.63 -0.78)" style="fill:#231f20"/><path d="M110.1,33.23a6.43,6.43,0,0,1,4.79-1.89,21.37,21.37,0,0,1,3.42.52c-.23,1-.78,4.81-1,6.93a16.66,16.66,0,0,0-.14,2.75,8.2,8.2,0,0,1-2.46.44c-.21,0-.25-1-.18-2,0-.25.07-.73.07-.87a5.58,5.58,0,0,1-4.49,2.8c-1.35,0-2.14-1.11-2.14-3.32A8,8,0,0,1,110.1,33.23Zm5.24.66a4.62,4.62,0,0,1,.12-.52,2.53,2.53,0,0,0-.94-.19A3.08,3.08,0,0,0,112,34.53a6.51,6.51,0,0,0-1.18,3.71c0,.89.25,1.46.75,1.46C112.72,39.7,114.75,37.6,115.34,33.89Z" transform="translate(-0.63 -0.78)" style="fill:#231f20"/><path d="M127,36.81a19.2,19.2,0,0,1-3.62,4.26,3.4,3.4,0,0,1-.82.47A5.82,5.82,0,0,1,121,42c-.32-.22-.57-1.82-.66-2.77-.18-1.8-.38-6.18-.38-7.5a20.63,20.63,0,0,1,2.59-.34c.21,0,.25.14.25.52,0,2.21,0,3.31.14,5.56a3.48,3.48,0,0,0,.18,1c1.37-1.26,3.19-4.31,3.19-6.36a4,4,0,0,0,0-.48,12.79,12.79,0,0,1,2-.27c.23,0,.29.59.29,1.05A9.62,9.62,0,0,1,127,36.81Z" transform="translate(-0.63 -0.78)" style="fill:#231f20"/><path d="M137.33,33.62c0,2.73-3.51,3.8-5.56,4v.31c0,1.24.48,1.87,1.55,1.87a4.77,4.77,0,0,0,3.07-1.39,1.12,1.12,0,0,1,.34.87,1.84,1.84,0,0,1-.38,1.18A5.1,5.1,0,0,1,132.43,42C130,42,129,40.36,129,38.08c0-3.37,2.14-6.74,5.67-6.74C136.6,31.34,137.33,32.5,137.33,33.62Zm-5.45,2.23c1.6-.14,3-1,3-2.05a.76.76,0,0,0-.77-.84C133.27,33,132.22,34,131.88,35.85Z" transform="translate(-0.63 -0.78)" style="fill:#231f20"/><path d="M139.55,51.54v.17h-.46v1.45h-.2V51.71h-.46v-.17Z" transform="translate(-0.63 -0.78)" style="fill:#231f20"/><path d="M141.37,51.57v1.59h-.21V51.89l-.51,1.27h-.18L140,51.9v1.26h-.21V51.57H140l.56,1.33.56-1.33Z" transform="translate(-0.63 -0.78)" style="fill:#231f20"/><path d="M27.34,50.86l-.42,2.29h-.56l1-5.49H29a2,2,0,0,1,1.23.32,1.1,1.1,0,0,1,.4.91,1.89,1.89,0,0,1,0,.38,1.83,1.83,0,0,1-.69,1.18,2.44,2.44,0,0,1-1.47.41Zm2.71-1.59a2.44,2.44,0,0,0,0-.3c0-.57-.39-.85-1.18-.85H27.83l-.41,2.28h1.07C29.4,50.4,29.92,50,30.05,49.27Z" transform="translate(-0.63 -0.78)" style="fill:#231f20"/><path d="M35,48a1.15,1.15,0,0,1,.4.92,1.9,1.9,0,0,1,0,.35,1.87,1.87,0,0,1-.6,1.09,2.14,2.14,0,0,1-1.23.49l1.17,2.3H34.1L33,50.86h-.91l-.4,2.29h-.57l1-5.49H33.8A1.85,1.85,0,0,1,35,48Zm-.17,1q0-.87-1.17-.87H32.56l-.42,2.31h1.11q1.36,0,1.56-1.14C34.83,49.16,34.85,49.06,34.85,49Z" transform="translate(-0.63 -0.78)" style="fill:#231f20"/><path d="M37.38,48.11,37,50.18H39.2l-.08.43H36.93l-.37,2.09H39l-.08.45h-3l1-5.49h3l-.08.45Z" transform="translate(-0.63 -0.78)" style="fill:#231f20"/><path d="M46.58,47.78l-1,5.37h-.56l.8-4.5-2.71,4.5h-.49l-1.11-4.48-.81,4.48h-.56l1-5.37h.66L43,52.48l2.89-4.7Z" transform="translate(-0.63 -0.78)" style="fill:#231f20"/><path d="M48.66,47.66l-1,5.49h-.57l1-5.49Z" transform="translate(-0.63 -0.78)" style="fill:#231f20"/><path d="M50.7,47.66,50.1,51a2.47,2.47,0,0,0-.05.54,1.09,1.09,0,0,0,.32.88,1.28,1.28,0,0,0,.89.28,1.63,1.63,0,0,0,1.14-.41A2.21,2.21,0,0,0,53,51l.6-3.33h.55L53.59,51a2.76,2.76,0,0,1-.86,1.66,2.34,2.34,0,0,1-1.57.56,1.8,1.8,0,0,1-1.23-.4,1.54,1.54,0,0,1-.45-1.21,3.31,3.31,0,0,1,.06-.61l.6-3.33Z" transform="translate(-0.63 -0.78)" style="fill:#231f20"/><path d="M61.07,47.78l-1,5.37h-.56l.81-4.5-2.72,4.5h-.49L56,48.67l-.81,4.48h-.55l1-5.37h.66l1.22,4.7,2.89-4.7Z" transform="translate(-0.63 -0.78)" style="fill:#231f20"/><path d="M64.6,52.72h2l-.07.43H64l1-5.49h.57Z" transform="translate(-0.63 -0.78)" style="fill:#231f20"/><path d="M72.32,47.88a2,2,0,0,1,.81.8,2.49,2.49,0,0,1,.28,1.19,3.08,3.08,0,0,1-.06.61,3.38,3.38,0,0,1-.59,1.42,3.05,3.05,0,0,1-1.11,1,3.11,3.11,0,0,1-1.45.35A2.58,2.58,0,0,1,69,52.93a1.91,1.91,0,0,1-.8-.79A2.41,2.41,0,0,1,67.88,51a3.18,3.18,0,0,1,.06-.62,3.44,3.44,0,0,1,.58-1.42,3.14,3.14,0,0,1,1.12-1,3,3,0,0,1,1.45-.35A2.49,2.49,0,0,1,72.32,47.88Zm-2.42.5a2.57,2.57,0,0,0-.91.8,3,3,0,0,0-.5,1.21,3.2,3.2,0,0,0,0,.52,1.73,1.73,0,0,0,.49,1.31,1.79,1.79,0,0,0,1.31.48,2.41,2.41,0,0,0,1.15-.28,2.45,2.45,0,0,0,.91-.79,3,3,0,0,0,.49-1.2,2.49,2.49,0,0,0,0-.53,1.74,1.74,0,0,0-.49-1.31A1.85,1.85,0,0,0,71,48.11,2.49,2.49,0,0,0,69.9,48.38Z" transform="translate(-0.63 -0.78)" style="fill:#231f20"/><path d="M78.93,47.66,76.52,51l-.38,2.14h-.57L76,51l-1.2-3.35h.64l1,2.77,2-2.77Z" transform="translate(-0.63 -0.78)" style="fill:#231f20"/><path d="M82.5,51.81H80l-.75,1.34H78.6l3-5.36h.63l1.1,5.36h-.61Zm-.08-.43-.57-3-1.66,3Z" transform="translate(-0.63 -0.78)" style="fill:#231f20"/><path d="M85.07,52.72h2l-.07.43H84.43l1-5.49H86Z" transform="translate(-0.63 -0.78)" style="fill:#231f20"/><path d="M92.36,47.66l-.07.45h-1.6l-.91,5h-.56l.91-5H88.54l.08-.45Z" transform="translate(-0.63 -0.78)" style="fill:#231f20"/><path d="M97.17,47.66,94.76,51l-.38,2.14h-.57L94.19,51,93,47.66h.64l1,2.77,1.94-2.77Z" transform="translate(-0.63 -0.78)" style="fill:#231f20"/><path d="M103.54,48a1.13,1.13,0,0,1,.41.92,1.29,1.29,0,0,1,0,.35,1.8,1.8,0,0,1-.59,1.09,2.2,2.2,0,0,1-1.24.49l1.18,2.3h-.63l-1.13-2.29h-.91l-.41,2.29h-.56l1-5.49h1.72A1.81,1.81,0,0,1,103.54,48Zm-.17,1q0-.87-1.17-.87h-1.11l-.42,2.31h1.11q1.36,0,1.56-1.14A2.85,2.85,0,0,0,103.37,49Z" transform="translate(-0.63 -0.78)" style="fill:#231f20"/><path d="M105.91,48.11l-.37,2.07h2.19l-.09.43h-2.18l-.38,2.09h2.43l-.08.45h-3l1-5.49h3l-.08.45Z" transform="translate(-0.63 -0.78)" style="fill:#231f20"/><path d="M116.39,47.66,114,53.15h-.67l-.55-4.7-2.25,4.7h-.67l-.46-5.49H110l.3,4.82,2.28-4.82h.63l.56,4.82,2-4.82Z" transform="translate(-0.63 -0.78)" style="fill:#231f20"/><path d="M120.05,51.81h-2.54l-.75,1.34h-.6l3-5.36h.62l1.1,5.36h-.6Zm-.08-.43-.57-3-1.65,3Z" transform="translate(-0.63 -0.78)" style="fill:#231f20"/><path d="M125.91,48a1.12,1.12,0,0,1,.4.92,1.9,1.9,0,0,1,0,.35,1.8,1.8,0,0,1-.59,1.09,2.2,2.2,0,0,1-1.24.49l1.18,2.3H125l-1.13-2.29H123l-.41,2.29H122l1-5.49h1.72A1.81,1.81,0,0,1,125.91,48Zm-.17,1q0-.87-1.17-.87h-1.11L123,50.45h1.11q1.36,0,1.56-1.14A2.85,2.85,0,0,0,125.74,49Z" transform="translate(-0.63 -0.78)" style="fill:#231f20"/><path d="M131.34,51.87a2.91,2.91,0,0,1-1.18,1,3.93,3.93,0,0,1-1.66.33h-1.69l1-5.49h1.7a2.86,2.86,0,0,1,1.87.55,1.94,1.94,0,0,1,.64,1.55,4.48,4.48,0,0,1-.05.64A3.47,3.47,0,0,1,131.34,51.87Zm-.88.2a2.66,2.66,0,0,0,.92-1.67,3.27,3.27,0,0,0,.05-.53,1.6,1.6,0,0,0-.52-1.28,2.33,2.33,0,0,0-1.55-.45h-1.09l-.81,4.52h1.09A2.94,2.94,0,0,0,130.46,52.07Z" transform="translate(-0.63 -0.78)" style="fill:#231f20"/><path d="M136.15,52.52a1.73,1.73,0,0,1-.62.5,2.39,2.39,0,0,1-1.89,0,1.52,1.52,0,0,1-.6-.55,1.48,1.48,0,0,1-.19-.74h.59a.93.93,0,0,0,.1.48.94.94,0,0,0,.39.4,1.32,1.32,0,0,0,.7.16,1.22,1.22,0,0,0,.82-.26,1.08,1.08,0,0,0,.39-.67,1.12,1.12,0,0,0,0-.24.77.77,0,0,0-.17-.52,1.05,1.05,0,0,0-.4-.32,6.19,6.19,0,0,0-.65-.26,7.23,7.23,0,0,1-.72-.3,1.2,1.2,0,0,1-.45-.39,1,1,0,0,1-.19-.64,1.9,1.9,0,0,1,0-.35,1.35,1.35,0,0,1,.59-.88,2.11,2.11,0,0,1,1.22-.33,2,2,0,0,1,.92.19,1.26,1.26,0,0,1,.57.49,1.37,1.37,0,0,1,.2.65h-.59a1,1,0,0,0-.29-.62,1.15,1.15,0,0,0-.84-.27,1.37,1.37,0,0,0-.87.27,1,1,0,0,0-.34.78.75.75,0,0,0,.16.48,1.1,1.1,0,0,0,.39.31,6.5,6.5,0,0,0,.62.25,4.67,4.67,0,0,1,.74.3,1.28,1.28,0,0,1,.47.4,1.1,1.1,0,0,1,.19.68,2.31,2.31,0,0,1,0,.37A1.51,1.51,0,0,1,136.15,52.52Z" transform="translate(-0.63 -0.78)" style="fill:#231f20"/></svg>